PathFileType	4	(x/y/z)	S05_M20_T05
DataRate	CameraRate	NumFrames	NumMarkers	Units	OrigDataRate	OrigDataStartFrame	OrigNumFrames
240	240	10	50	mm	240	132	527
Frame#	Time	Sternum			R.Acromium			L.Acromium			Top.Head			R.ASIS			L.ASIS			R.PSIS			L.PSIS			R.Great.Tro			L.Great.Tro			R.Iliac.Crest			L.Iliac.Crest			V.Sacral			R.Thigh.Upper.Post			R.Thigh.Lower.Ant			R.Thigh.Lower.Post			R.Thigh.Upper.Ant			R.Knee.Lat			R.Knee.Med			R.Shank.Upper.Post			R.Shank.Lower.Ant			R.Shank.Lower.Post			R.Shank.Upper.Ant			R.Ankle.Lat			R.Ankle.Med			R.Heel.Upper			R.Heel.Med			R.Heel.Lat			R.Toe.Lat			R.Toe.Med			R.Toe.Tip			L.Thigh.Upper.Post			L.Thigh.Lower.Ant			L.Thigh.Lower.Post			L.Thigh.Upper.Ant			L.Knee.Lat			L.Shank.Upper.Post			L.Shank.Lower.Ant			L.Shank.Lower.Post			L.Shank.Upper.Ant			L.Ankle.Lat			L.Ankle.Med			L.Heel.Upper			L.Heel.Med			L.Heel.Lat			L.Toe.Lat			L.Toe.Med			L.Toe.Tip			Cervical.Spine			Back			
		X1	Y1	Z1	X2	Y2	Z2	X3	Y3	Z3	X4	Y4	Z4	X5	Y5	Z5	X6	Y6	Z6	X7	Y7	Z7	X8	Y8	Z8	X9	Y9	Z9	X10	Y10	Z10	X11	Y11	Z11	X12	Y12	Z12	X13	Y13	Z13	X14	Y14	Z14	X15	Y15	Z15	X16	Y16	Z16	X17	Y17	Z17	X18	Y18	Z18	X19	Y19	Z19	X20	Y20	Z20	X21	Y21	Z21	X22	Y22	Z22	X23	Y23	Z23	X24	Y24	Z24	X25	Y25	Z25	X26	Y26	Z26	X27	Y27	Z27	X28	Y28	Z28	X29	Y29	Z29	X30	Y30	Z30	X31	Y31	Z31	X32	Y32	Z32	X33	Y33	Z33	X34	Y34	Z34	X35	Y35	Z35	X36	Y36	Z36	X37	Y37	Z37	X38	Y38	Z38	X39	Y39	Z39	X40	Y40	Z40	X41	Y41	Z41	X42	Y42	Z42	X43	Y43	Z43	X44	Y44	Z44	X45	Y45	Z45	X46	Y46	Z46	X47	Y47	Z47	X48	Y48	Z48	X49	Y49	Z49	X50	Y50	Z50	

132	0.54583	-122.11	1265.9	286.44	-195.13	1531.9	448.19	-213.47	1549.6	120.3	-216.9	1823	292.27	-193.39	1013.7	420.22	-201.11	1012.6	172.09	-398.27	1029.8	346.89	-400.07	1036.9	255.55	-259.9	941.43	495.55	-301.67	939.47	105.52	-276.69	1099.7	463.05	-290.27	1092.7	130.13	-411.6	997.76	313.23	-80.659	784.14	492.83	-4.9413	754.28	430.79	-38.696	705.61	473.52	-51.57	828.83	449.06	2.6985	620.74	454.28	7.9542	610.27	323.36	-27.05	370.61	435.95	46.515	317.13	433.46	-13.533	296.54	416.27	33.568	392.2	451.12	44.03	212.36	412.31	60.609	246.51	327.79	-2.8966	140.72	347.3	19.921	116.4	319.28	14.63	114.77	383.4	171.58	155.31	443.88	205.59	182.13	330.01	256.68	218.57	378.91	-336.24	701.68	120.85	-268.45	617.23	145.15	-340	607.96	141.51	-257.64	705.42	122.3	-343.76	516.36	152.2	-442.3	328.61	160.72	-386.69	259.46	168.36	-457.11	259.64	182.78	-376.12	328.36	152.62	-450.41	122.04	195.54	-416.83	132.77	283.29	-514.58	73.017	250.65	-505.11	46.446	281.49	-516.33	48.348	220.72	-335.85	38.413	159.19	-308.26	44.652	278.68	-246	51.258	222.58	-264.6	1571.3	292.35	-391.26	1298.7	294.52
133	0.55	-117.51	1265.2	286.5	-190.35	1531	448.72	-209	1549.1	120.9	-212.02	1822.2	293.27	-188.1	1012.9	420.01	-196.57	1012	171.91	-393.19	1029.1	347.28	-395.27	1036.3	255.98	-254.5	940.49	495.47	-297.63	939.19	105.64	-271.42	1098.8	463.18	-285.89	1092.2	130.25	-406.63	997.09	313.62	-75.848	782.6	492.73	-0.38309	752.39	430.56	-34.179	703.89	473.47	-46.781	827.08	448.74	7.2773	619.15	454.12	12.571	608.45	323.14	-17.488	368.5	436.32	57.132	316.59	434.07	-2.3406	294.68	416.74	42.575	391.42	451.62	57.167	211.63	413.16	73.005	245.93	328.61	11.813	138.88	348.31	35.168	115.01	320.34	29.913	113.38	384.48	185.98	157.37	444.87	219.36	184.71	330.93	269.68	222.32	379.75	-333.88	701.81	120.87	-266.65	616.91	145.23	-338.25	608.13	141.61	-255.26	704.99	122.25	-342.81	516.48	152.38	-441.95	328.99	161.21	-386.49	259.71	168.52	-456.85	260.07	183.24	-375.81	328.56	152.78	-450.3	122.24	195.9	-416.48	132.88	283.57	-514.36	73.217	251.15	-504.9	46.608	281.94	-516.24	48.617	221.19	-335.89	38.435	159.25	-308.11	44.602	278.69	-245.93	51.116	222.52	-259.95	1570.6	292.99	-386.61	1297.9	295.04
134	0.55417	-112.89	1264.5	286.57	-185.55	1530.1	449.26	-204.55	1548.6	121.52	-207.14	1821.5	294.28	-182.81	1012.1	419.8	-192.02	1011.4	171.73	-388.1	1028.3	347.67	-390.45	1035.7	256.41	-249.09	939.49	495.38	-293.55	938.87	105.76	-266.14	1097.9	463.32	-281.48	1091.6	130.38	-401.64	996.39	314.01	-71.071	780.95	492.66	4.1344	750.38	430.35	-29.711	702.06	473.44	-42.021	825.22	448.45	11.795	617.46	453.95	17.13	606.53	322.91	-8.0507	366.43	436.72	67.556	316.07	434.7	8.6878	292.88	417.24	51.432	390.63	452.14	70.079	210.98	414.06	85.171	245.4	329.46	26.293	137.16	349.39	50.16	113.73	321.47	44.956	112.1	385.63	200.09	159.5	445.87	232.82	187.34	331.84	282.35	226.09	380.58	-331.47	701.91	120.9	-264.81	616.57	145.32	-336.46	608.28	141.72	-252.84	704.54	122.22	-341.81	516.6	152.57	-441.57	329.36	161.69	-386.26	259.95	168.68	-456.56	260.51	183.7	-375.47	328.75	152.95	-450.19	122.44	196.27	-416.12	133	283.84	-514.14	73.429	251.65	-504.68	46.777	282.38	-516.15	48.895	221.66	-335.93	38.456	159.32	-307.96	44.55	278.71	-245.87	50.977	222.46	-255.29	1569.9	293.64	-381.95	1297.1	295.58
135	0.55833	-108.25	1263.8	286.64	-180.74	1529.1	449.8	-200.1	1548.1	122.15	-202.25	1820.7	295.3	-177.5	1011.2	419.6	-187.45	1010.7	171.56	-382.98	1027.5	348.07	-385.6	1035.1	256.84	-243.68	938.42	495.3	-289.45	938.53	105.86	-260.84	1096.9	463.47	-277.05	1091	130.51	-396.64	995.65	314.4	-66.326	779.2	492.6	8.6133	748.26	430.15	-25.289	700.12	473.41	-37.285	823.25	448.17	16.255	615.67	453.78	21.631	604.52	322.66	1.2528	364.38	437.15	77.782	315.58	435.34	19.539	291.13	417.79	60.137	389.85	452.67	82.754	210.41	414.99	97.098	244.92	330.34	40.532	135.54	350.52	64.885	112.56	322.65	59.746	110.95	386.83	213.9	161.7	446.9	245.94	190	332.75	294.69	229.86	381.38	-329.03	701.97	120.94	-262.93	616.2	145.42	-334.62	608.4	141.84	-250.39	704.07	122.19	-340.76	516.7	152.76	-441.15	329.74	162.17	-386.01	260.19	168.84	-456.25	260.94	184.16	-375.09	328.93	153.13	-450.08	122.65	196.63	-415.75	133.11	284.11	-513.93	73.65	252.15	-504.47	46.954	282.81	-516.06	49.179	222.12	-335.98	38.476	159.38	-307.81	44.498	278.73	-245.81	50.841	222.4	-250.62	1569	294.3	-377.27	1296.2	296.13
136	0.5625	-103.59	1263	286.72	-175.9	1528.1	450.37	-195.66	1547.6	122.8	-197.35	1819.8	296.35	-172.18	1010.2	419.42	-182.86	1010	171.4	-377.85	1026.7	348.47	-380.74	1034.4	257.28	-238.27	937.29	495.22	-285.32	938.14	105.95	-255.52	1095.9	463.62	-272.59	1090.4	130.65	-391.62	994.88	314.79	-61.61	777.36	492.56	13.056	746.05	429.96	-20.91	698.07	473.38	-32.571	821.19	447.91	20.658	613.8	453.59	26.074	602.41	322.39	10.412	362.37	437.61	87.804	315.11	436	30.2	289.44	418.39	68.684	389.07	453.21	95.183	209.9	415.96	108.78	244.47	331.25	54.517	134.01	351.71	79.334	111.5	323.89	74.27	109.91	388.09	227.38	163.97	447.95	258.72	192.68	333.66	306.68	233.63	382.19	-326.54	702.01	121	-261.01	615.82	145.52	-332.73	608.49	141.98	-247.89	703.57	122.17	-339.64	516.78	152.96	-440.68	330.11	162.65	-385.72	260.42	169.01	-455.9	261.37	184.6	-374.66	329.11	153.31	-449.95	122.86	196.98	-415.39	133.23	284.38	-513.73	73.881	252.63	-504.26	47.141	283.24	-515.97	49.471	222.57	-336.02	38.494	159.45	-307.67	44.446	278.75	-245.75	50.708	222.34	-245.93	1568.2	294.98	-372.57	1295.3	296.69
137	0.56667	-98.913	1262.2	286.79	-171.04	1527.1	450.94	-191.21	1547	123.47	-192.43	1818.9	297.41	-166.84	1009.3	419.24	-178.25	1009.3	171.25	-372.69	1025.8	348.87	-375.86	1033.7	257.72	-232.85	936.11	495.14	-281.16	937.72	106.04	-250.19	1094.8	463.79	-268.1	1089.8	130.79	-386.58	994.09	315.19	-56.924	775.42	492.52	17.466	743.74	429.78	-16.572	695.93	473.34	-27.877	819.04	447.67	25.008	611.84	453.39	30.461	600.23	322.09	19.417	360.4	438.11	97.615	314.65	436.67	40.661	287.8	419.03	77.07	388.29	453.76	107.35	209.45	416.96	120.21	244.05	332.17	68.238	132.58	352.94	93.5	110.52	325.18	88.514	108.97	389.4	240.53	166.3	449.04	271.17	195.38	334.59	318.32	237.39	383	-324	702.01	121.07	-259.03	615.41	145.63	-330.79	608.55	142.13	-245.35	703.04	122.16	-338.46	516.85	153.16	-440.17	330.49	163.11	-385.39	260.63	169.18	-455.52	261.8	185.03	-374.19	329.28	153.49	-449.82	123.08	197.33	-415.02	133.34	284.65	-513.53	74.122	253.09	-504.06	47.336	283.65	-515.89	49.769	223	-336.07	38.51	159.51	-307.53	44.393	278.76	-245.69	50.578	222.28	-241.22	1567.3	295.68	-367.86	1294.4	297.27
138	0.57083	-94.214	1261.3	286.88	-166.15	1526	451.53	-186.76	1546.3	124.14	-187.51	1818	298.49	-161.49	1008.2	419.07	-173.63	1008.5	171.11	-367.52	1024.9	349.28	-370.96	1033	258.17	-227.42	934.87	495.07	-276.97	937.26	106.11	-244.84	1093.7	463.96	-263.59	1089.1	130.93	-381.53	993.26	315.59	-52.264	773.4	492.49	21.846	741.35	429.6	-12.271	693.71	473.3	-23.199	816.81	447.45	29.306	609.81	453.18	34.792	597.97	321.77	28.258	358.46	438.63	107.21	314.2	437.35	50.91	286.21	419.71	85.292	387.5	454.31	119.26	209.05	417.98	131.39	243.67	333.11	81.683	131.24	354.21	107.37	109.62	326.5	102.47	108.12	390.75	253.34	168.66	450.15	283.28	198.07	335.53	329.62	241.12	383.82	-321.41	701.98	121.15	-256.99	614.98	145.74	-328.8	608.59	142.28	-242.77	702.48	122.14	-337.2	516.89	153.36	-439.6	330.86	163.55	-385.03	260.84	169.34	-455.1	262.22	185.45	-373.66	329.43	153.67	-449.68	123.3	197.66	-414.66	133.45	284.9	-513.34	74.372	253.54	-503.87	47.541	284.05	-515.8	50.072	223.41	-336.12	38.524	159.57	-307.39	44.339	278.78	-245.63	50.451	222.22	-236.49	1566.4	296.4	-363.12	1293.4	297.85
139	0.575	-89.493	1260.4	286.96	-161.25	1524.8	452.13	-182.3	1545.7	124.83	-182.57	1817	299.59	-156.13	1007.2	418.92	-169	1007.6	170.98	-362.34	1024	349.7	-366.04	1032.2	258.62	-221.99	933.59	495	-272.75	936.77	106.19	-239.47	1092.6	464.15	-259.05	1088.4	131.09	-376.47	992.41	315.99	-47.629	771.31	492.45	26.198	738.88	429.42	-8.0064	691.41	473.25	-18.532	814.51	447.24	33.555	607.72	452.96	39.066	595.65	321.43	36.926	356.54	439.18	116.59	313.76	438.05	60.939	284.66	420.43	93.345	386.71	454.87	130.89	208.7	419.03	142.31	243.3	334.07	94.843	129.96	355.52	120.95	108.8	327.87	116.11	107.35	392.13	265.79	171.05	451.31	295.05	200.75	336.5	340.56	244.81	384.67	-318.77	701.91	121.24	-254.9	614.52	145.84	-326.74	608.59	142.44	-240.13	701.9	122.14	-335.87	516.91	153.56	-438.97	331.23	163.98	-384.62	261.03	169.5	-454.64	262.65	185.84	-373.08	329.57	153.85	-449.52	123.53	197.98	-414.29	133.56	285.15	-513.15	74.631	253.96	-503.68	47.757	284.42	-515.71	50.381	223.81	-336.16	38.536	159.63	-307.26	44.286	278.8	-245.58	50.327	222.16	-231.75	1565.4	297.13	-358.37	1292.4	298.45
140	0.57917	-84.749	1259.4	287.05	-156.32	1523.6	452.75	-177.82	1545	125.53	-177.62	1816	300.71	-150.76	1006	418.78	-164.34	1006.8	170.87	-357.13	1023	350.12	-361.1	1031.5	259.08	-216.55	932.26	494.95	-268.51	936.25	106.25	-234.08	1091.4	464.35	-254.49	1087.6	131.25	-371.39	991.53	316.4	-43.016	769.14	492.41	30.527	736.35	429.23	-3.7741	689.05	473.18	-13.875	812.15	447.03	37.757	605.58	452.73	43.285	593.27	321.07	45.415	354.66	439.74	125.74	313.31	438.75	70.741	283.15	421.18	101.23	385.91	455.42	142.24	208.38	420.09	152.97	242.94	335.04	107.71	128.76	356.84	134.21	108.04	329.25	129.44	106.66	393.53	277.89	173.45	452.49	306.47	203.39	337.49	351.16	248.44	385.54	-316.08	701.81	121.35	-252.75	614.03	145.95	-324.62	608.55	142.6	-237.44	701.29	122.13	-334.46	516.91	153.75	-438.29	331.59	164.38	-384.17	261.21	169.66	-454.13	263.06	186.21	-372.43	329.69	154.03	-449.35	123.76	198.28	-413.92	133.67	285.39	-512.97	74.899	254.36	-503.5	47.983	284.78	-515.63	50.694	224.18	-336.2	38.547	159.68	-307.13	44.233	278.81	-245.52	50.205	222.1	-226.98	1564.4	297.88	-353.59	1291.3	299.05
141	0.58333	-79.98	1258.5	287.14	-151.37	1522.4	453.37	-173.33	1544.3	126.24	-172.66	1815	301.85	-145.38	1004.9	418.65	-159.68	1005.8	170.76	-351.91	1022	350.55	-356.14	1030.6	259.54	-211.1	930.88	494.91	-264.24	935.69	106.32	-228.67	1090.2	464.55	-249.91	1086.8	131.43	-366.31	990.63	316.82	-38.423	766.92	492.36	34.834	733.75	429.04	0.42842	686.62	473.09	-9.2217	809.74	446.84	41.916	603.39	452.49	47.45	590.84	320.68	53.718	352.79	440.3	134.67	312.86	439.46	80.308	281.68	421.96	108.93	385.1	455.96	153.29	208.08	421.16	163.36	242.6	336.02	120.26	127.61	358.18	147.15	107.33	330.66	142.44	106.02	394.95	289.61	175.83	453.71	317.56	206	338.51	361.41	252	386.45	-313.32	701.67	121.46	-250.53	613.52	146.04	-322.44	608.49	142.77	-234.7	700.65	122.12	-332.97	516.87	153.93	-437.53	331.95	164.75	-383.67	261.38	169.8	-453.58	263.47	186.55	-371.72	329.8	154.19	-449.17	123.99	198.56	-413.55	133.78	285.61	-512.79	75.175	254.73	-503.32	48.22	285.11	-515.54	51.013	224.53	-336.24	38.555	159.73	-307.01	44.179	278.83	-245.47	50.086	222.05	-222.19	1563.3	298.64	-348.8	1290.2	299.67
